<svg xmlns="http://www.w3.org/2000/svg" width="32.882" height="24.662" viewBox="0 0 32.882 24.662"><defs><style>.a{fill:#fff;}</style></defs><path class="a" d="M31.855,84.551H4.11V65.028A1.027,1.027,0,0,0,3.083,64H1.028A1.027,1.027,0,0,0,0,65.028V86.606a2.055,2.055,0,0,0,2.055,2.055h29.8a1.027,1.027,0,0,0,1.028-1.028V85.579A1.027,1.027,0,0,0,31.855,84.551ZM29.8,66.055H22.217a1.541,1.541,0,0,0-1.09,2.631l2.081,2.081L18.5,75.48l-4.712-4.712a2.054,2.054,0,0,0-2.906,0L6.467,75.179a1.028,1.028,0,0,0,0,1.453l1.453,1.453a1.028,1.028,0,0,0,1.453,0l2.958-2.959,4.712,4.712a2.054,2.054,0,0,0,2.906,0l6.165-6.165L28.2,75.754a1.541,1.541,0,0,0,2.631-1.09V67.083A1.026,1.026,0,0,0,29.8,66.055Z" transform="translate(0 -64)"/></svg>