<svg xmlns="http://www.w3.org/2000/svg" width="34.295" height="27.436" viewBox="0 0 34.295 27.436"><defs><style>.a{opacity:0.26;}.b{fill:#9a9a9a;}</style></defs><g class="a" transform="translate(0 -54.821)"><g transform="translate(0 54.821)"><path class="b" d="M33.455,55.66a2.752,2.752,0,0,0-2.018-.839H2.858a2.753,2.753,0,0,0-2.018.839A2.752,2.752,0,0,0,0,57.679V79.4a2.752,2.752,0,0,0,.839,2.018,2.753,2.753,0,0,0,2.018.84H31.437A2.867,2.867,0,0,0,34.295,79.4V57.679A2.752,2.752,0,0,0,33.455,55.66ZM32.008,79.4a.578.578,0,0,1-.571.571H2.858a.579.579,0,0,1-.572-.572V68.539H32.008V79.4Zm0-17.719H2.286v-4a.579.579,0,0,1,.572-.571H31.437a.579.579,0,0,1,.571.571v4Z" transform="translate(0 -54.821)"/><rect class="b" width="4.573" height="2.287" transform="translate(4.573 20.576)"/><rect class="b" width="6.859" height="2.287" transform="translate(11.432 20.576)"/></g></g></svg>