<svg xmlns="http://www.w3.org/2000/svg" width="182" height="122" viewBox="0 0 182 122"><defs><style>.a,.b{fill:#4447ab;opacity:0.03;}.a{font-size:100px;font-family:Montserrat-Bold, Montserrat;font-weight:700;letter-spacing:0.1em;}</style></defs><g transform="translate(-139 -606)"><text class="a" transform="translate(183 703)"><tspan x="0" y="0">99</tspan></text><path class="b" d="M25.829,28.782l-13.318-3.9a3.637,3.637,0,0,1,1.024-7.128h8.176a7.527,7.527,0,0,1,4.217,1.295,1.922,1.922,0,0,0,2.4-.247l4.291-4.193a2,2,0,0,0-.222-3.021,17.437,17.437,0,0,0-10.667-3.7V1.973A1.979,1.979,0,0,0,19.762,0H15.816a1.979,1.979,0,0,0-1.973,1.973V7.892h-.308A13.511,13.511,0,0,0,.094,22.641C.612,28.325,4.952,32.95,10.427,34.553l12.64,3.7a3.637,3.637,0,0,1-1.024,7.128H13.868a7.527,7.527,0,0,1-4.217-1.295,1.922,1.922,0,0,0-2.4.247L2.955,48.524a2,2,0,0,0,.222,3.021,17.437,17.437,0,0,0,10.667,3.7v5.919a1.979,1.979,0,0,0,1.973,1.973h3.946a1.979,1.979,0,0,0,1.973-1.973V55.22A13.93,13.93,0,0,0,34.77,46.255a13.541,13.541,0,0,0-8.94-17.474Z" transform="translate(138.964 635)"/></g></svg>