<svg xmlns="http://www.w3.org/2000/svg" xmlns:xlink="http://www.w3.org/1999/xlink" width="613" height="483.417" viewBox="0 0 613 483.417"><defs><style>.a{fill:#fff;}.b{fill:#24279d;}.c{filter:url(#g);}.d{filter:url(#e);}.e{filter:url(#c);}.f{filter:url(#a);}</style><filter id="a" x="0" y="86" width="613" height="312.417" filterUnits="userSpaceOnUse"><feOffset dy="5" input="SourceAlpha"/><feGaussianBlur stdDeviation="5" result="b"/><feFlood flood-opacity="0.102"/><feComposite operator="in" in2="b"/><feComposite in="SourceGraphic"/></filter><filter id="c" x="32" y="57" width="550" height="370.417" filterUnits="userSpaceOnUse"><feOffset dy="5" input="SourceAlpha"/><feGaussianBlur stdDeviation="5" result="d"/><feFlood flood-opacity="0.102"/><feComposite operator="in" in2="d"/><feComposite in="SourceGraphic"/></filter><filter id="e" x="63" y="14" width="488" height="456.417" filterUnits="userSpaceOnUse"><feOffset dy="5" input="SourceAlpha"/><feGaussianBlur stdDeviation="5" result="f"/><feFlood flood-opacity="0.102"/><feComposite operator="in" in2="f"/><feComposite in="SourceGraphic"/></filter><filter id="g" x="88" y="0" width="438" height="483.417" filterUnits="userSpaceOnUse"><feOffset dy="5" input="SourceAlpha"/><feGaussianBlur stdDeviation="5" result="h"/><feFlood flood-opacity="0.102"/><feComposite operator="in" in2="h"/><feComposite in="SourceGraphic"/></filter></defs><g transform="translate(-85 -1143)"><g class="f" transform="matrix(1, 0, 0, 1, 85, 1143)"><rect class="a" width="583" height="282.417" rx="5" transform="translate(15 96)"/></g><g class="e" transform="matrix(1, 0, 0, 1, 85, 1143)"><rect class="a" width="520" height="340.417" rx="5" transform="translate(47 67)"/></g><g class="d" transform="matrix(1, 0, 0, 1, 85, 1143)"><rect class="a" width="458" height="426.417" rx="5" transform="translate(78 24)"/></g><g class="c" transform="matrix(1, 0, 0, 1, 85, 1143)"><path class="b" d="M5,0H403a5,5,0,0,1,5,5V448.417a5,5,0,0,1-5,5H5a5,5,0,0,1-5-5V5A5,5,0,0,1,5,0Z" transform="translate(103 10)"/></g></g></svg>