<svg xmlns="http://www.w3.org/2000/svg" width="239" height="156" viewBox="0 0 239 156"><defs><style>.a,.b{fill:#4447ab;opacity:0.03;}.a{font-size:128px;font-family:Montserrat-Bold, Montserrat;font-weight:700;letter-spacing:0.1em;}</style></defs><g transform="translate(-139 -606)"><text class="a" transform="translate(195 730)"><tspan x="0" y="0">49</tspan></text><path class="b" d="M33.12,36.917l-17.082-5a4.665,4.665,0,0,1,1.313-9.142H27.837a9.655,9.655,0,0,1,5.409,1.661,2.466,2.466,0,0,0,3.084-.316l5.5-5.378a2.564,2.564,0,0,0-.285-3.875,22.366,22.366,0,0,0-13.682-4.745V2.531A2.538,2.538,0,0,0,25.338,0H20.276a2.538,2.538,0,0,0-2.531,2.531v7.592h-.4A17.33,17.33,0,0,0,.11,29.04c.664,7.292,6.232,13.223,13.255,15.279l16.212,4.745a4.665,4.665,0,0,1-1.313,9.142H17.777a9.655,9.655,0,0,1-5.409-1.661,2.466,2.466,0,0,0-3.084.316l-5.5,5.378a2.564,2.564,0,0,0,.285,3.875A22.366,22.366,0,0,0,17.746,70.86v7.592a2.538,2.538,0,0,0,2.531,2.531h5.061a2.538,2.538,0,0,0,2.531-2.531V70.828c7.371-.142,14.283-4.524,16.718-11.5A17.368,17.368,0,0,0,33.12,36.917Z" transform="translate(138.964 643.197)"/></g></svg>