<svg xmlns="http://www.w3.org/2000/svg" width="20.103" height="20.098" viewBox="0 0 20.103 20.098"><defs><style>.a{fill:#fff;}</style></defs><path class="a" d="M9.979,36.721a5.153,5.153,0,1,0,5.153,5.153A5.145,5.145,0,0,0,9.979,36.721Zm0,8.5a3.35,3.35,0,1,1,3.35-3.35,3.356,3.356,0,0,1-3.35,3.35Zm6.566-8.714a1.2,1.2,0,1,1-1.2-1.2A1.2,1.2,0,0,1,16.544,36.51Zm3.413,1.22a5.948,5.948,0,0,0-1.623-4.211A5.987,5.987,0,0,0,14.122,31.9c-1.659-.094-6.633-.094-8.292,0a5.978,5.978,0,0,0-4.211,1.619A5.967,5.967,0,0,0,0,37.726C-.1,39.385-.1,44.359,0,46.018a5.948,5.948,0,0,0,1.623,4.211A6,6,0,0,0,5.83,51.852c1.659.094,6.633.094,8.292,0a5.948,5.948,0,0,0,4.211-1.623,5.987,5.987,0,0,0,1.623-4.211C20.051,44.359,20.051,39.39,19.957,37.73ZM17.813,47.8a3.392,3.392,0,0,1-1.91,1.91c-1.323.525-4.462.4-5.924.4s-4.606.117-5.924-.4a3.392,3.392,0,0,1-1.91-1.91c-.525-1.323-.4-4.462-.4-5.924s-.117-4.606.4-5.924a3.392,3.392,0,0,1,1.91-1.91c1.323-.525,4.462-.4,5.924-.4s4.606-.117,5.924.4a3.392,3.392,0,0,1,1.91,1.91c.525,1.323.4,4.462.4,5.924S18.338,46.48,17.813,47.8Z" transform="translate(0.075 -31.825)"/></svg>