<svg xmlns="http://www.w3.org/2000/svg" width="125.813" height="20.198" viewBox="0 0 125.813 20.198"><defs><style>.a,.b{fill:#fff;}.b{stroke:#fff;stroke-linecap:square;stroke-miterlimit:10;}</style></defs><g transform="translate(-1 -16.691)"><g transform="translate(110 18)"><path class="a" d="M13.312,8.647.683.075A.444.444,0,0,0,.233.049.427.427,0,0,0,0,.428V17.571a.428.428,0,0,0,.233.38.442.442,0,0,0,.45-.027L13.312,9.353a.425.425,0,0,0,0-.705Z"/><path class="b" d="M1.688,0V16.875" transform="translate(14.625 1.125)"/></g><g transform="translate(0 18)"><path class="a" d="M11.833-8.647.607-.075a.357.357,0,0,1-.4.027A.436.436,0,0,1,0-.428V-17.571a.437.437,0,0,1,.207-.38A.36.36,0,0,1,.387-18a.363.363,0,0,1,.22.076L11.833-9.353A.443.443,0,0,1,12-9,.444.444,0,0,1,11.833-8.647Z" transform="translate(16) rotate(180)"/><path class="b" d="M1.5,0V-16.8" transform="translate(3 1.2) rotate(180)"/></g><g transform="translate(36)"><path class="a" d="M15.49,9.7.795.085A.532.532,0,0,0,.271.055.478.478,0,0,0,0,.48V19.717a.479.479,0,0,0,.271.426.531.531,0,0,0,.523-.03l14.7-9.618a.467.467,0,0,0,0-.792Z" transform="translate(20.618 16.691)"/></g></g></svg>