<svg xmlns="http://www.w3.org/2000/svg" xmlns:xlink="http://www.w3.org/1999/xlink" width="46.104" height="37.673" viewBox="0 0 46.104 37.673"><defs><style>.a{fill:#fff;}.b{filter:url(#a);}</style><filter id="a" x="0" y="0" width="46.104" height="37.673" filterUnits="userSpaceOnUse"><feOffset dy="3" input="SourceAlpha"/><feGaussianBlur stdDeviation="3" result="b"/><feFlood flood-opacity="0.161"/><feComposite operator="in" in2="b"/><feComposite in="SourceGraphic"/></filter></defs><g transform="translate(27.5 -4)"><g class="b" transform="matrix(1, 0, 0, 1, -27.5, 4)"><path class="a" d="M23.607,40.545a4.221,4.221,0,0,0-3.935-5.735,4.194,4.194,0,0,0-2.341.711,7.027,7.027,0,0,0-13.117,3.5c0,.119,0,.237.009.356a6.325,6.325,0,0,0,2.1,12.291h16.16a5.62,5.62,0,0,0,1.124-11.127Zm-6.332,2.7H14.4V48.16a.7.7,0,0,1-.7.7H11.593a.7.7,0,0,1-.7-.7V43.241H8.018a.7.7,0,0,1-.5-1.2l4.628-4.628a.705.705,0,0,1,.992,0l4.628,4.628A.7.7,0,0,1,17.275,43.241Z" transform="translate(9 -26)"/></g></g></svg>