<svg xmlns="http://www.w3.org/2000/svg" xmlns:xlink="http://www.w3.org/1999/xlink" width="146.654" height="146.654" viewBox="0 0 146.654 146.654"><defs><style>.a{fill:#ff7d69;}.b{fill:#fff;}.c{filter:url(#a);}</style><filter id="a" x="0" y="0" width="146.654" height="146.654" filterUnits="userSpaceOnUse"><feOffset dy="10" input="SourceAlpha"/><feGaussianBlur stdDeviation="15" result="b"/><feFlood flood-color="#d6cecf" flood-opacity="0.302"/><feComposite operator="in" in2="b"/><feComposite in="SourceGraphic"/></filter></defs><g transform="translate(45 35)"><g class="c" transform="matrix(1, 0, 0, 1, -45, -35)"><path class="a" d="M28.327,0A28.327,28.327,0,1,1,0,28.327,28.327,28.327,0,0,1,28.327,0Z" transform="translate(45 35)"/></g><path class="b" d="M16.931,10.6.868.092A.582.582,0,0,0,.3.06.522.522,0,0,0,0,.525V21.55a.523.523,0,0,0,.3.466.581.581,0,0,0,.572-.033L16.931,11.47a.511.511,0,0,0,0-.865Z" transform="translate(21.261 17.074)"/></g></svg>