<svg xmlns="http://www.w3.org/2000/svg" width="18" height="18" viewBox="0 0 18 18"><defs><style>.a{fill:#ff7d69;}</style></defs><path class="a" d="M16.714,39.071H10.929V33.286A1.286,1.286,0,0,0,9.643,32H8.357a1.286,1.286,0,0,0-1.286,1.286v5.786H1.286A1.286,1.286,0,0,0,0,40.357v1.286a1.286,1.286,0,0,0,1.286,1.286H7.071v5.786A1.286,1.286,0,0,0,8.357,50H9.643a1.286,1.286,0,0,0,1.286-1.286V42.929h5.786A1.286,1.286,0,0,0,18,41.643V40.357A1.286,1.286,0,0,0,16.714,39.071Z" transform="translate(0 -32)"/></svg>