<svg xmlns="http://www.w3.org/2000/svg" width="22.666" height="18.409" viewBox="0 0 22.666 18.409"><defs><style>.a{fill:#fff;}</style></defs><path class="a" d="M20.336,52.67c.014.2.014.4.014.6A13.126,13.126,0,0,1,7.133,66.491,13.127,13.127,0,0,1,0,64.405a9.609,9.609,0,0,0,1.122.058,9.3,9.3,0,0,0,5.767-1.985,4.654,4.654,0,0,1-4.343-3.222,5.858,5.858,0,0,0,.877.072,4.913,4.913,0,0,0,1.222-.158A4.646,4.646,0,0,1,.92,54.611v-.058a4.678,4.678,0,0,0,2.1.59,4.652,4.652,0,0,1-1.438-6.213,13.2,13.2,0,0,0,9.578,4.861,5.244,5.244,0,0,1-.115-1.064,4.65,4.65,0,0,1,8.039-3.178,9.146,9.146,0,0,0,2.948-1.122,4.633,4.633,0,0,1-2.042,2.56,9.313,9.313,0,0,0,2.675-.719A9.986,9.986,0,0,1,20.336,52.67Z" transform="translate(0 -48.082)"/></svg>