<svg xmlns="http://www.w3.org/2000/svg" width="36.258" height="25.381" viewBox="0 0 36.258 25.381"><defs><style>.a{fill:#fff;}</style></defs><path class="a" d="M5.439,42.878a3.626,3.626,0,1,0-3.626-3.626A3.629,3.629,0,0,0,5.439,42.878Zm25.381,0a3.626,3.626,0,1,0-3.626-3.626A3.629,3.629,0,0,0,30.82,42.878Zm1.813,1.813H29.007a3.615,3.615,0,0,0-2.555,1.054,8.287,8.287,0,0,1,4.255,6.2h3.739a1.811,1.811,0,0,0,1.813-1.813V48.316A3.629,3.629,0,0,0,32.633,44.69Zm-14.5,0a6.345,6.345,0,1,0-6.345-6.345A6.342,6.342,0,0,0,18.129,44.69ZM22.48,46.5h-.47a8.761,8.761,0,0,1-7.762,0h-.47A6.528,6.528,0,0,0,7.252,53.03v1.632a2.72,2.72,0,0,0,2.719,2.719H26.287a2.72,2.72,0,0,0,2.719-2.719V53.03A6.528,6.528,0,0,0,22.48,46.5ZM9.807,45.744A3.615,3.615,0,0,0,7.252,44.69H3.626A3.629,3.629,0,0,0,0,48.316v1.813a1.811,1.811,0,0,0,1.813,1.813H5.546A8.308,8.308,0,0,1,9.807,45.744Z" transform="translate(0 -32)"/></svg>